<svg xmlns="http://www.w3.org/2000/svg" viewBox="0 0 841.89 595.28"><defs><style>.cls-1{fill:#d9d9d9;}.cls-2{fill:#ececec;}.cls-3{fill:#fff;}</style></defs><g id="Lag_1" data-name="Lag 1"><circle class="cls-1" cx="420.5" cy="298" r="195.47"/><circle class="cls-2" cx="420.5" cy="298" r="164.62"/><circle class="cls-3" cx="420.5" cy="298" r="76.51"/><rect class="cls-3" x="186.85" y="296.5" width="467.29" height="3"/><rect class="cls-3" x="186.85" y="296.5" width="467.3" height="3" transform="translate(-47.84 513.13) rotate(-60)"/><rect class="cls-3" x="419" y="64.35" width="3" height="467.3" transform="translate(-92.66 250.17) rotate(-30)"/></g><g id="Lag_1_kopi" data-name="Lag 1 kopi"><circle class="cls-1" cx="420.94" cy="298" r="195.47"/><circle class="cls-2" cx="420.94" cy="298" r="164.62"/><circle class="cls-3" cx="420.94" cy="298" r="76.51"/><polygon class="cls-3" points="623.05 299.3 420.94 298 218.84 299.3 218.84 296.7 420.94 298 623.05 296.7 623.05 299.3"/><polygon class="cls-3" points="321.01 473.68 318.77 472.38 420.94 298 520.88 122.32 523.12 123.62 420.94 298 321.01 473.68"/><polygon class="cls-3" points="520.88 473.68 420.94 298 318.77 123.62 321.01 122.32 420.94 298 523.12 472.38 520.88 473.68"/><rect class="cls-1" x="407.87" y="121.34" width="26.16" height="26.16" transform="translate(28.25 337.02) rotate(-45)"/><rect class="cls-1" x="407.87" y="448.52" width="26.16" height="26.16" transform="translate(-203.11 432.85) rotate(-45)"/><rect class="cls-1" x="266.19" y="203.13" width="26.16" height="26.16" transform="translate(142.71 541.92) rotate(-105)"/><rect class="cls-1" x="549.54" y="366.73" width="26.16" height="26.16" transform="matrix(-0.26, -0.97, 0.97, -0.26, 341.38, 1021.55)"/><rect class="cls-1" x="266.19" y="366.73" width="26.16" height="26.16" transform="translate(450.72 818.95) rotate(-165)"/><rect class="cls-1" x="549.54" y="203.13" width="26.16" height="26.16" transform="translate(1050.11 570.67) rotate(-165)"/><rect class="cls-2" x="394.19" y="204.73" width="53.51" height="53.51" transform="translate(-40.39 365.45) rotate(-45)"/><rect class="cls-2" x="394.19" y="337.75" width="53.51" height="53.51" transform="translate(-134.45 404.41) rotate(-45)"/><rect class="cls-2" x="451.79" y="237.98" width="53.51" height="53.51" transform="matrix(0.97, 0.26, -0.26, 0.97, 84.82, -114.84)"/><rect class="cls-2" x="336.59" y="304.49" width="53.51" height="53.51" transform="translate(98.11 -82.75) rotate(15)"/><rect class="cls-2" x="336.59" y="237.98" width="53.51" height="53.51" transform="matrix(-0.26, -0.97, 0.97, -0.26, 201.67, 684.22)"/><rect class="cls-2" x="451.79" y="304.49" width="53.51" height="53.51" transform="matrix(-0.26, -0.97, 0.97, -0.26, 282.44, 879.22)"/></g></svg>