<svg id="Layer_1" data-name="Layer 1" xmlns="http://www.w3.org/2000/svg" viewBox="0 0 684.76 107.25"><defs><style>.cls-1,.cls-2{fill-rule:evenodd;}.cls-2{fill:#fff;}</style></defs><title>Tegnebræt 6</title><path class="cls-1" d="M441.32,104.68h246.1V1.93H441.32ZM684.76,4.57V102H444V4.57ZM0,1.93H430.7V104.68H0V1.93Z"/><path class="cls-2" d="M684.76,4.57v97.48H444V4.57H684.76m-536,55.69c0,10.08-5.42,15.09-17.68,15.09H111.73V37.53h18.64c14.87,0,18.35,7.14,18.35,14.94v7.79Zm7.95-.29V53.49c0-20.68-16.41-21.49-27.48-21.49H103.78V80.94h27.64c21.69,0,25.25-11.63,25.25-21Zm43,8.91c0,2.86-.23,5.44-3.49,6.62-1.94.73-4.68,1-9.29,1s-7.35-.44-9-1.47c-1.12-.66-1.57-1.77-1.57-4.12,0-2.94.75-4.64,2.23-5.3s3.2-.8,8.84-.8h12.26v4.12Zm7.51,12.06V61.73a57,57,0,0,0-.3-8,6.55,6.55,0,0,0-2.61-4.42c-3.56-2.79-12.4-2.87-16.78-2.87-3.27,0-12.26.37-15.53,3.16A4.05,4.05,0,0,0,170.56,53c0,.88.15,2.05.22,3.6h7.28c.15-.88.3-3,1.11-3.82,1-1,2.68-1.33,7.65-1.33,5.72,0,9.74.22,11.37,1.1s1.49,2.73,1.49,4.13V60H182.89c-4.53,0-9.73.07-12.63,4a10.65,10.65,0,0,0-1.85,6.62c0,8.1,5.05,10.82,18,10.82,6.76,0,11.14-1,13.82-3.31l.66,2.79h6.32Zm45,0V62.25c0-6.47-.3-7.87-1.86-9s-4.45-1.77-9-1.77a46.8,46.8,0,0,0-12,1.55v28H222V46.72h6.69l.51,2.43a18.87,18.87,0,0,1,4.16-1.84,34.06,34.06,0,0,1,9.73-1.11,27.54,27.54,0,0,1,11.22,2,8.16,8.16,0,0,1,4.83,6,31.72,31.72,0,0,1,.52,7.2V80.93H252.2m55-2.05c-3.42,1.69-9,2.43-16.27,2.43a53.48,53.48,0,0,1-12.48-1.17c-3.49-.81-5.2-2.43-5.42-5.37a26.76,26.76,0,0,1,.22-4.79h7.13c.23,1.77.23,2.28.3,2.65.3,1.61.15,2.5,2.08,3.09a32.2,32.2,0,0,0,8.62.81c4.75,0,8-.52,10.25-1.48,1.55-.66,2.3-1.91,2.3-4.26,0-2.73-.59-3.83-3.41-4.27-.9-.14-1.79-.14-2.68-.22-.52-.07-2.16-.07-4.75-.15-1.27,0-2.67-.07-4.39-.14-7.35-.37-15.22-.66-15.22-9.27,0-7.73,4.83-10.45,18-10.45a98.35,98.35,0,0,1,9.95.51A18.52,18.52,0,0,1,308,48.57c1.71,1,2.3,2.5,2.3,5.23a19.91,19.91,0,0,1-.14,2.65h-7.21l-.29-1.55c-.38-1.84-.52-2.21-1.11-2.65-1.05-.81-4.25-1.18-8.7-1.18s-7.06.22-9.13,1S281,53.94,281,56.37a4,4,0,0,0,1.42,3.46c1.93,1.17,12.1,1,15.59,1.1A26.76,26.76,0,0,1,306.29,62c3.79,1.32,5.27,3.74,5.27,8.75,0,4-1.33,6.55-4.38,8.1m45.67,2L335,64.75h-2.67V80.94h-7.42V32h7.43V59.89H335l14.8-13.17h8.68L341.27,61.81l21.48,19.13h-9.89m46.72-20.46H375.73c.3-4.26,1.19-6.18,2.9-7.43s4.9-1.83,9.58-1.83c6.47,0,9.51,1.39,10.63,4.33a13.09,13.09,0,0,1,.74,4.93Zm6.84,9.79h-7.36c-.23,1-.37,3.68-1.34,4.64s-3.34,1.62-9.36,1.62c-5.86,0-9.14-.81-10.77-2.43-1.26-1.25-2-3.83-2-7.87v-.88h31.06c.07-1.7.14-2.14.14-3.47,0-5.66-.82-8.83-3.27-11.26-2.82-2.86-8.24-4.27-15.67-4.27-9.51,0-15.38,2.14-17.83,6.85-1.41,2.72-2.23,6.55-2.23,11.33,0,7.43,2,12.14,6.39,14.5,2.76,1.47,7.51,2.28,13.52,2.35,5.05,0,9.06-.22,13.52-1.54s5.35-3.76,5.35-5.74c0-.52,0-2.21-.15-3.83Z"/><path class="cls-1" d="M504.47,44.37c0,7.21-4.08,8.68-12.55,8.68H473.2V37.53h19.69c7.5,0,11.58.66,11.58,6.84Zm9.81,22.81c0-6-3.49-10.52-11.82-11.77v-.15c6.46-1.69,10-5,10-10.23,0-8.61-4.23-13-16.27-13h-30.9V80.94h32.17c10.84,0,16.85-4.85,16.85-13.76Zm-7.95.51c0,7-5,7.65-12.7,7.65H473.2V58.57h21.39c9.14,0,11.74,2.94,11.74,9.12Zm48.36,1.19c0,2.86-.23,5.44-3.5,6.62-1.92.73-4.67,1-9.29,1s-7.35-.44-9-1.47c-1.11-.66-1.56-1.77-1.56-4.12,0-2.94.74-4.64,2.23-5.3s3.19-.8,8.84-.8h12.25v4.12Zm7.5,12.06V61.73a59,59,0,0,0-.29-8,6.53,6.53,0,0,0-2.6-4.42c-3.57-2.79-12.41-2.87-16.79-2.87-3.27,0-12.26.37-15.52,3.16A4.05,4.05,0,0,0,525.58,53c0,.88.15,2.05.22,3.6h7.28c.15-.88.3-3,1.11-3.82,1-1,2.67-1.33,7.65-1.33,5.72,0,9.74.22,11.37,1.1s1.48,2.73,1.48,4.13V60H537.91c-4.53,0-9.74.07-12.63,4a10.66,10.66,0,0,0-1.86,6.62c0,8.1,5.06,10.82,18,10.82,6.76,0,11.15-1,13.81-3.31l.67,2.79h6.31Zm43.16,0V62.25c0-6.47-.3-7.87-1.86-9s-4.45-1.77-9-1.77a46.84,46.84,0,0,0-12,1.55v28h-7.42V46.72h6.68l.53,2.43a19,19,0,0,1,4.15-1.84,34.09,34.09,0,0,1,9.74-1.11,27.6,27.6,0,0,1,11.22,2,8.15,8.15,0,0,1,4.82,6,31.72,31.72,0,0,1,.52,7.2V80.93h-7.43m48.28,0L635.81,64.75h-2.68V80.94H625.7V32h7.43V59.89h2.68l14.78-13.17h8.69L642.05,61.81l21.47,19.13h-9.89"/></svg>